# xmcd
#
# Track frame offsets: 
#        150
#        24701
#        48010
#        68579
#        95129
#        116141
#        142868
#        162239
#        184948
#        199716
#
# Disc length: 2970 seconds
#
# Revision: 1
# Processed by: cddbd v1.5.2PL0 Copyright (c) Steve Scherf et al.
# Submitted via: ExactAudioCopy v0.99pb5
#
DISCID=860b980a
DTITLE=Sheila Landis - Guess I'll Call It Love
DYEAR=1981
DGENRE=Jazz
TTITLE0=Guess I'll Call It Love (Penso Que Seja Amor)
TTITLE1=Lonely Wine
TTITLE2=Mythica
TTITLE3=There's Never Enough There for Me
TTITLE4=Talk Dirty to Me
TTITLE5=Cole's Eye View
TTITLE6=Love Robs Your Reason
TTITLE7=Where You Gonna Put Your Blues?
TTITLE8=Perenthe-Seizure
TTITLE9=Starlight, the Song That's Your Eyes
EXTD=
EXTT0=
EXTT1=
EXTT2=
EXTT3=
EXTT4=
EXTT5=
EXTT6=
EXTT7=
EXTT8=
EXTT9=
PLAYORDER=
